<svg xmlns="http://www.w3.org/2000/svg" version="1.1" xmlns:xlink="http://www.w3.org/1999/xlink" width="168" height="168"><svg width="168" height="168" viewBox="0 0 168 168" fill="none" xmlns="http://www.w3.org/2000/svg">
<path d="M102.793 2.22283C102.802 2.2253 102.81 2.22995 102.817 2.23637C102.824 2.2428 102.83 2.25081 102.833 2.25972C102.836 2.26863 102.837 2.27817 102.835 2.28753C102.834 2.29689 102.831 2.30579 102.825 2.31346L49.9292 75.1643C49.92 75.1769 49.9079 75.1873 49.8939 75.1944C49.88 75.2015 49.8645 75.2052 49.8488 75.2052C49.8332 75.2052 49.8177 75.2015 49.8037 75.1944C49.7898 75.1873 49.7777 75.1769 49.7684 75.1643L18.2368 31.7695C18.2139 31.7369 18.2021 31.6979 18.2032 31.6583C18.2042 31.6188 18.2181 31.5809 18.2426 31.5502C38.4286 6.32727 71.191 -5.20257 102.793 2.22283Z" fill="#11142A"></path>
<path d="M81.2881 48.9323C81.2684 48.9261 81.2504 48.9153 81.2356 48.9007C81.2207 48.8862 81.2095 48.8683 81.2027 48.8485C81.1959 48.8287 81.1938 48.8075 81.1964 48.7865C81.1991 48.7656 81.2064 48.7454 81.218 48.7277L110.636 3.42105C110.679 3.35498 110.744 3.30579 110.819 3.28182C110.894 3.25785 110.975 3.26056 111.048 3.2895C130.053 10.6301 145.851 24.6448 156.013 42.2436C162.179 52.9257 165.843 64.3834 167.005 76.6168C167.006 76.6355 167.003 76.6542 166.995 76.6714C166.988 76.6885 166.976 76.7035 166.961 76.7151C166.947 76.7266 166.929 76.7344 166.911 76.7376C166.892 76.7409 166.873 76.7396 166.856 76.7337L81.2881 48.9323Z" fill="#2CB6CE"></path>
<path d="M0.00164689 84.9316V84.7796C-0.0938504 68.7341 3.96381 53.8872 12.1746 40.2389C12.1795 40.2306 12.1863 40.2237 12.1946 40.2188C12.203 40.2139 12.2124 40.2113 12.2223 40.211C12.2321 40.2107 12.2419 40.2128 12.251 40.2172C12.26 40.2215 12.2679 40.228 12.274 40.236L65.1815 113.055C65.1923 113.07 65.1994 113.087 65.2021 113.106C65.2048 113.124 65.2032 113.143 65.1972 113.161C65.1912 113.179 65.1812 113.195 65.1678 113.209C65.1544 113.222 65.1381 113.232 65.1201 113.239L14.2093 129.782C14.1538 129.8 14.094 129.799 14.039 129.78C13.9841 129.76 13.9371 129.723 13.9053 129.674C6.28303 118.105 1.78296 105.404 0.405074 91.5706C0.266701 90.1694 0.132225 87.9564 0.00164689 84.9316Z" fill="#9B86FE"></path>
<path d="M115.977 160.692C115.968 160.695 115.959 160.696 115.949 160.695C115.94 160.694 115.931 160.69 115.923 160.685C115.915 160.679 115.909 160.672 115.905 160.664C115.901 160.655 115.898 160.646 115.898 160.636L115.91 70.6136C115.91 70.5981 115.914 70.583 115.921 70.5693C115.928 70.5556 115.939 70.5437 115.951 70.5346C115.964 70.5256 115.978 70.5195 115.993 70.517C116.008 70.5144 116.024 70.5155 116.039 70.52L167.046 87.1132C167.084 87.1264 167.116 87.1512 167.138 87.1838C167.16 87.2165 167.171 87.2553 167.169 87.2944C165.652 119.56 145.913 148.136 115.977 160.692Z" fill="#9B86FE"></path>
<path d="M20.3415 138.181C20.3353 138.173 20.3311 138.164 20.3292 138.155C20.3273 138.145 20.3279 138.135 20.3308 138.126C20.3337 138.117 20.3389 138.108 20.3459 138.101C20.3528 138.095 20.3614 138.09 20.3708 138.087L105.97 110.286C105.985 110.281 106.001 110.28 106.017 110.283C106.032 110.285 106.047 110.292 106.059 110.301C106.072 110.311 106.082 110.323 106.089 110.337C106.096 110.351 106.099 110.366 106.099 110.382L106.079 164.006C106.078 164.046 106.065 164.084 106.042 164.116C106.018 164.148 105.985 164.17 105.947 164.181C74.7955 172.706 41.5273 162.763 20.3415 138.181Z" fill="#2CB6CE"></path>
</svg><style>@media (prefers-color-scheme: light) { :root { filter: none; } }
@media (prefers-color-scheme: dark) { :root { filter: none; } }
</style></svg>