<svg xmlns="http://www.w3.org/2000/svg" version="1.1" xmlns:xlink="http://www.w3.org/1999/xlink" width="512" height="512" x="0" y="0" viewBox="0 0 24 24" style="enable-background:new 0 0 512 512" xml:space="preserve"><g><path d="M12 2C6.5 2 2 6.5 2 12s4.5 10 10 10 10-4.5 10-10S17.5 2 12 2zm0 18c-4.4 0-8-3.6-8-8s3.6-8 8-8 8 3.6 8 8-3.6 8-8 8zm3.1-7.4L13 11.4V7c0-.6-.4-1-1-1s-1 .4-1 1v5.1c0 .1 0 .1.1.2 0 .1 0 .1.1.2 0 .1.1.1.1.2l.2.1.1.1 2.6 1.5c.2.1.3.1.5.1.6 0 1-.4 1-1-.1-.4-.3-.7-.6-.9z" fill="#767676" opacity="1" data-original="#000000"></path></g></svg>