<svg width="1043" height="168" viewBox="0 0 1043 168" fill="none" xmlns="http://www.w3.org/2000/svg">
<path d="M102.793 2.22283C102.802 2.2253 102.81 2.22995 102.817 2.23637C102.824 2.2428 102.83 2.25081 102.833 2.25972C102.836 2.26863 102.837 2.27817 102.835 2.28753C102.834 2.29689 102.831 2.30579 102.825 2.31346L49.9292 75.1643C49.92 75.1769 49.9079 75.1873 49.8939 75.1944C49.88 75.2015 49.8645 75.2052 49.8488 75.2052C49.8332 75.2052 49.8177 75.2015 49.8037 75.1944C49.7898 75.1873 49.7777 75.1769 49.7684 75.1643L18.2368 31.7695C18.2139 31.7369 18.2021 31.6979 18.2032 31.6583C18.2042 31.6188 18.2181 31.5809 18.2426 31.5502C38.4286 6.32727 71.191 -5.20257 102.793 2.22283Z" fill="#11142A"/>
<path d="M81.2881 48.9323C81.2684 48.9261 81.2504 48.9153 81.2356 48.9007C81.2207 48.8862 81.2095 48.8683 81.2027 48.8485C81.1959 48.8287 81.1938 48.8075 81.1964 48.7865C81.1991 48.7656 81.2064 48.7454 81.218 48.7277L110.636 3.42105C110.679 3.35498 110.744 3.30579 110.819 3.28182C110.894 3.25785 110.975 3.26056 111.048 3.2895C130.053 10.6301 145.851 24.6448 156.013 42.2436C162.179 52.9257 165.843 64.3834 167.005 76.6168C167.006 76.6355 167.003 76.6542 166.995 76.6714C166.988 76.6885 166.976 76.7035 166.961 76.7151C166.947 76.7266 166.929 76.7344 166.911 76.7376C166.892 76.7409 166.873 76.7396 166.856 76.7337L81.2881 48.9323Z" fill="#2CB6CE"/>
<path d="M0.00164689 84.9316V84.7796C-0.0938504 68.7341 3.96381 53.8872 12.1746 40.2389C12.1795 40.2306 12.1863 40.2237 12.1946 40.2188C12.203 40.2139 12.2124 40.2113 12.2223 40.211C12.2321 40.2107 12.2419 40.2128 12.251 40.2172C12.26 40.2215 12.2679 40.228 12.274 40.236L65.1815 113.055C65.1923 113.07 65.1994 113.087 65.2021 113.106C65.2048 113.124 65.2032 113.143 65.1972 113.161C65.1912 113.179 65.1812 113.195 65.1678 113.209C65.1544 113.222 65.1381 113.232 65.1201 113.239L14.2093 129.782C14.1538 129.8 14.094 129.799 14.039 129.78C13.9841 129.76 13.9371 129.723 13.9053 129.674C6.28303 118.105 1.78296 105.404 0.405074 91.5706C0.266701 90.1694 0.132225 87.9564 0.00164689 84.9316Z" fill="#9B86FE"/>
<path d="M115.977 160.692C115.968 160.695 115.959 160.696 115.949 160.695C115.94 160.694 115.931 160.69 115.923 160.685C115.915 160.679 115.909 160.672 115.905 160.664C115.901 160.655 115.898 160.646 115.898 160.636L115.91 70.6136C115.91 70.5981 115.914 70.583 115.921 70.5693C115.928 70.5556 115.939 70.5437 115.951 70.5346C115.964 70.5256 115.978 70.5195 115.993 70.517C116.008 70.5144 116.024 70.5155 116.039 70.52L167.046 87.1132C167.084 87.1264 167.116 87.1512 167.138 87.1838C167.16 87.2165 167.171 87.2553 167.169 87.2944C165.652 119.56 145.913 148.136 115.977 160.692Z" fill="#9B86FE"/>
<path d="M20.3415 138.181C20.3353 138.173 20.3311 138.164 20.3292 138.155C20.3273 138.145 20.3279 138.135 20.3308 138.126C20.3337 138.117 20.3389 138.108 20.3459 138.101C20.3528 138.095 20.3614 138.09 20.3708 138.087L105.97 110.286C105.985 110.281 106.001 110.28 106.017 110.283C106.032 110.285 106.047 110.292 106.059 110.301C106.072 110.311 106.082 110.323 106.089 110.337C106.096 110.351 106.099 110.366 106.099 110.382L106.079 164.006C106.078 164.046 106.065 164.084 106.042 164.116C106.018 164.148 105.985 164.17 105.947 164.181C74.7955 172.706 41.5273 162.763 20.3415 138.181Z" fill="#2CB6CE"/>
<path d="M234.68 128.536C228.195 128.536 222.392 127.427 217.272 125.208C212.237 122.989 208.227 119.747 205.24 115.48C202.339 111.213 200.845 106.051 200.76 99.992H219.064C219.149 102.637 219.832 105.027 221.112 107.16C222.392 109.293 224.141 111 226.36 112.28C228.664 113.475 231.395 114.072 234.552 114.072C237.283 114.072 239.629 113.645 241.592 112.792C243.64 111.853 245.219 110.573 246.328 108.952C247.437 107.331 247.992 105.411 247.992 103.192C247.992 100.632 247.352 98.4987 246.072 96.792C244.877 95.0853 243.171 93.6347 240.952 92.44C238.819 91.2453 236.301 90.1787 233.4 89.24C230.584 88.216 227.597 87.1493 224.44 86.04C217.357 83.736 211.939 80.664 208.184 76.824C204.515 72.984 202.68 67.9067 202.68 61.592C202.68 56.216 203.96 51.608 206.52 47.768C209.165 43.928 212.792 40.984 217.4 38.936C222.008 36.888 227.256 35.864 233.144 35.864C239.203 35.864 244.493 36.9307 249.016 39.064C253.624 41.112 257.251 44.0987 259.896 48.024C262.627 51.9493 264.035 56.5573 264.12 61.848H245.688C245.603 59.8853 245.005 58.0507 243.896 56.344C242.872 54.552 241.421 53.144 239.544 52.12C237.667 51.0107 235.448 50.456 232.888 50.456C230.669 50.3707 228.621 50.712 226.744 51.48C224.952 52.248 223.501 53.4 222.392 54.936C221.368 56.3867 220.856 58.2213 220.856 60.44C220.856 62.5733 221.368 64.3653 222.392 65.816C223.501 67.2667 224.995 68.5467 226.872 69.656C228.749 70.68 230.968 71.6613 233.528 72.6C236.088 73.4533 238.861 74.3493 241.848 75.288C246.285 76.824 250.381 78.6587 254.136 80.792C257.891 82.84 260.877 85.528 263.096 88.856C265.315 92.184 266.424 96.5787 266.424 102.04C266.424 106.733 265.187 111.085 262.712 115.096C260.237 119.107 256.653 122.349 251.96 124.824C247.352 127.299 241.592 128.536 234.68 128.536ZM302.458 128.536C297.082 128.536 292.645 127.683 289.146 125.976C285.647 124.184 283.045 121.837 281.338 118.936C279.717 115.949 278.906 112.664 278.906 109.08C278.906 105.155 279.887 101.699 281.85 98.712C283.898 95.7253 286.927 93.3787 290.938 91.672C295.034 89.9653 300.154 89.112 306.298 89.112H322.298C322.298 85.9547 321.871 83.352 321.018 81.304C320.165 79.1707 318.842 77.592 317.05 76.568C315.258 75.544 312.869 75.032 309.882 75.032C306.639 75.032 303.866 75.7573 301.562 77.208C299.343 78.5733 297.978 80.7067 297.466 83.608H280.698C281.125 79 282.618 75.032 285.178 71.704C287.823 68.2907 291.279 65.6453 295.546 63.768C299.898 61.8907 304.719 60.952 310.01 60.952C316.069 60.952 321.317 61.976 325.754 64.024C330.191 66.072 333.605 69.016 335.994 72.856C338.383 76.696 339.578 81.432 339.578 87.064V127H324.986L323.066 117.144C322.127 118.851 321.018 120.387 319.738 121.752C318.458 123.117 316.965 124.312 315.258 125.336C313.551 126.36 311.631 127.128 309.498 127.64C307.365 128.237 305.018 128.536 302.458 128.536ZM306.554 115.224C308.773 115.224 310.735 114.84 312.442 114.072C314.234 113.219 315.77 112.109 317.05 110.744C318.33 109.293 319.311 107.672 319.994 105.88C320.762 104.003 321.274 101.997 321.53 99.864V99.736H308.346C305.701 99.736 303.525 100.077 301.818 100.76C300.197 101.357 299.002 102.253 298.234 103.448C297.466 104.643 297.082 106.008 297.082 107.544C297.082 109.251 297.466 110.659 298.234 111.768C299.002 112.877 300.111 113.731 301.562 114.328C303.013 114.925 304.677 115.224 306.554 115.224ZM393.842 128.536C390.514 128.536 387.527 128.109 384.882 127.256C382.322 126.403 380.018 125.251 377.97 123.8C376.007 122.264 374.343 120.557 372.978 118.68L371.058 127H355.698V34.84H372.978V71.448C375.026 68.4613 377.714 65.9867 381.042 64.024C384.455 61.976 388.679 60.952 393.714 60.952C399.687 60.952 404.978 62.4453 409.586 65.432C414.279 68.3333 417.949 72.344 420.594 77.464C423.325 82.4987 424.69 88.3013 424.69 94.872C424.69 101.272 423.325 107.032 420.594 112.152C417.949 117.272 414.322 121.283 409.714 124.184C405.106 127.085 399.815 128.536 393.842 128.536ZM389.746 113.432C393.159 113.432 396.146 112.664 398.706 111.128C401.351 109.507 403.399 107.331 404.85 104.6C406.301 101.784 407.026 98.5413 407.026 94.872C407.026 91.2027 406.301 87.96 404.85 85.144C403.399 82.2427 401.351 80.024 398.706 78.488C396.146 76.8667 393.159 76.056 389.746 76.056C386.418 76.056 383.431 76.8667 380.786 78.488C378.226 80.024 376.178 82.2 374.642 85.016C373.191 87.832 372.466 91.0747 372.466 94.744C372.466 98.4133 373.191 101.699 374.642 104.6C376.178 107.416 378.226 109.592 380.786 111.128C383.431 112.664 386.418 113.432 389.746 113.432ZM461.333 128.536C455.957 128.536 451.52 127.683 448.021 125.976C444.522 124.184 441.92 121.837 440.213 118.936C438.592 115.949 437.781 112.664 437.781 109.08C437.781 105.155 438.762 101.699 440.725 98.712C442.773 95.7253 445.802 93.3787 449.813 91.672C453.909 89.9653 459.029 89.112 465.173 89.112H481.173C481.173 85.9547 480.746 83.352 479.893 81.304C479.04 79.1707 477.717 77.592 475.925 76.568C474.133 75.544 471.744 75.032 468.757 75.032C465.514 75.032 462.741 75.7573 460.437 77.208C458.218 78.5733 456.853 80.7067 456.341 83.608H439.573C440 79 441.493 75.032 444.053 71.704C446.698 68.2907 450.154 65.6453 454.421 63.768C458.773 61.8907 463.594 60.952 468.885 60.952C474.944 60.952 480.192 61.976 484.629 64.024C489.066 66.072 492.48 69.016 494.869 72.856C497.258 76.696 498.453 81.432 498.453 87.064V127H483.861L481.941 117.144C481.002 118.851 479.893 120.387 478.613 121.752C477.333 123.117 475.84 124.312 474.133 125.336C472.426 126.36 470.506 127.128 468.373 127.64C466.24 128.237 463.893 128.536 461.333 128.536ZM465.429 115.224C467.648 115.224 469.61 114.84 471.317 114.072C473.109 113.219 474.645 112.109 475.925 110.744C477.205 109.293 478.186 107.672 478.869 105.88C479.637 104.003 480.149 101.997 480.405 99.864V99.736H467.221C464.576 99.736 462.4 100.077 460.693 100.76C459.072 101.357 457.877 102.253 457.109 103.448C456.341 104.643 455.957 106.008 455.957 107.544C455.957 109.251 456.341 110.659 457.109 111.768C457.877 112.877 458.986 113.731 460.437 114.328C461.888 114.925 463.552 115.224 465.429 115.224ZM514.957 127V62.488H532.237V127H514.957ZM523.661 53.656C520.589 53.656 518.029 52.76 515.981 50.968C514.018 49.0907 513.037 46.744 513.037 43.928C513.037 41.112 514.018 38.808 515.981 37.016C518.029 35.1387 520.589 34.2 523.661 34.2C526.818 34.2 529.378 35.1387 531.341 37.016C533.389 38.808 534.413 41.112 534.413 43.928C534.413 46.744 533.389 49.0907 531.341 50.968C529.378 52.76 526.818 53.656 523.661 53.656ZM570.946 127V51.352H544.706V37.4H614.21V51.352H588.098V127H570.946ZM626.073 127V34.84H643.353V72.088C645.486 68.6747 648.302 65.9867 651.801 64.024C655.385 61.976 659.524 60.952 664.217 60.952C669.593 60.952 674.116 62.104 677.785 64.408C681.454 66.6267 684.228 69.8693 686.105 74.136C687.982 78.4027 688.921 83.6933 688.921 90.008V127H671.769V91.544C671.769 86.424 670.702 82.4987 668.569 79.768C666.436 76.952 663.065 75.544 658.457 75.544C655.641 75.544 653.081 76.2267 650.777 77.592C648.473 78.9573 646.638 80.9627 645.273 83.608C643.993 86.168 643.353 89.24 643.353 92.824V127H626.073ZM726.958 128.536C721.582 128.536 717.145 127.683 713.646 125.976C710.147 124.184 707.545 121.837 705.838 118.936C704.217 115.949 703.406 112.664 703.406 109.08C703.406 105.155 704.387 101.699 706.35 98.712C708.398 95.7253 711.427 93.3787 715.438 91.672C719.534 89.9653 724.654 89.112 730.798 89.112H746.798C746.798 85.9547 746.371 83.352 745.518 81.304C744.665 79.1707 743.342 77.592 741.55 76.568C739.758 75.544 737.369 75.032 734.382 75.032C731.139 75.032 728.366 75.7573 726.062 77.208C723.843 78.5733 722.478 80.7067 721.966 83.608H705.198C705.625 79 707.118 75.032 709.678 71.704C712.323 68.2907 715.779 65.6453 720.046 63.768C724.398 61.8907 729.219 60.952 734.51 60.952C740.569 60.952 745.817 61.976 750.254 64.024C754.691 66.072 758.105 69.016 760.494 72.856C762.883 76.696 764.078 81.432 764.078 87.064V127H749.486L747.566 117.144C746.627 118.851 745.518 120.387 744.238 121.752C742.958 123.117 741.465 124.312 739.758 125.336C738.051 126.36 736.131 127.128 733.998 127.64C731.865 128.237 729.518 128.536 726.958 128.536ZM731.054 115.224C733.273 115.224 735.235 114.84 736.942 114.072C738.734 113.219 740.27 112.109 741.55 110.744C742.83 109.293 743.811 107.672 744.494 105.88C745.262 104.003 745.774 101.997 746.03 99.864V99.736H732.846C730.201 99.736 728.025 100.077 726.318 100.76C724.697 101.357 723.502 102.253 722.734 103.448C721.966 104.643 721.582 106.008 721.582 107.544C721.582 109.251 721.966 110.659 722.734 111.768C723.502 112.877 724.611 113.731 726.062 114.328C727.513 114.925 729.177 115.224 731.054 115.224ZM780.582 127V62.488H797.862V127H780.582ZM789.286 53.656C786.214 53.656 783.654 52.76 781.606 50.968C779.643 49.0907 778.662 46.744 778.662 43.928C778.662 41.112 779.643 38.808 781.606 37.016C783.654 35.1387 786.214 34.2 789.286 34.2C792.443 34.2 795.003 35.1387 796.966 37.016C799.014 38.808 800.038 41.112 800.038 43.928C800.038 46.744 799.014 49.0907 796.966 50.968C795.003 52.76 792.443 53.656 789.286 53.656ZM846.555 128.536C840.07 128.536 834.267 127.427 829.147 125.208C824.112 122.989 820.102 119.747 817.115 115.48C814.214 111.213 812.72 106.051 812.635 99.992H830.939C831.024 102.637 831.707 105.027 832.987 107.16C834.267 109.293 836.016 111 838.235 112.28C840.539 113.475 843.27 114.072 846.427 114.072C849.158 114.072 851.504 113.645 853.467 112.792C855.515 111.853 857.094 110.573 858.203 108.952C859.312 107.331 859.867 105.411 859.867 103.192C859.867 100.632 859.227 98.4987 857.947 96.792C856.752 95.0853 855.046 93.6347 852.827 92.44C850.694 91.2453 848.176 90.1787 845.275 89.24C842.459 88.216 839.472 87.1493 836.315 86.04C829.232 83.736 823.814 80.664 820.059 76.824C816.39 72.984 814.555 67.9067 814.555 61.592C814.555 56.216 815.835 51.608 818.395 47.768C821.04 43.928 824.667 40.984 829.275 38.936C833.883 36.888 839.131 35.864 845.019 35.864C851.078 35.864 856.368 36.9307 860.891 39.064C865.499 41.112 869.126 44.0987 871.771 48.024C874.502 51.9493 875.91 56.5573 875.995 61.848H857.563C857.478 59.8853 856.88 58.0507 855.771 56.344C854.747 54.552 853.296 53.144 851.419 52.12C849.542 51.0107 847.323 50.456 844.763 50.456C842.544 50.3707 840.496 50.712 838.619 51.48C836.827 52.248 835.376 53.4 834.267 54.936C833.243 56.3867 832.731 58.2213 832.731 60.44C832.731 62.5733 833.243 64.3653 834.267 65.816C835.376 67.2667 836.87 68.5467 838.747 69.656C840.624 70.68 842.843 71.6613 845.403 72.6C847.963 73.4533 850.736 74.3493 853.723 75.288C858.16 76.824 862.256 78.6587 866.011 80.792C869.766 82.84 872.752 85.528 874.971 88.856C877.19 92.184 878.299 96.5787 878.299 102.04C878.299 106.733 877.062 111.085 874.587 115.096C872.112 119.107 868.528 122.349 863.835 124.824C859.227 127.299 853.467 128.536 846.555 128.536ZM892.573 155.16V62.488H907.933L909.853 71.448C911.218 69.5707 912.84 67.864 914.717 66.328C916.594 64.7067 918.813 63.4267 921.373 62.488C924.018 61.464 927.09 60.952 930.589 60.952C936.648 60.952 941.981 62.4453 946.589 65.432C951.197 68.4187 954.824 72.472 957.469 77.592C960.2 82.6267 961.565 88.3867 961.565 94.872C961.565 101.357 960.2 107.16 957.469 112.28C954.738 117.315 951.069 121.283 946.461 124.184C941.853 127.085 936.605 128.536 930.717 128.536C925.938 128.536 921.8 127.683 918.301 125.976C914.888 124.184 912.072 121.752 909.853 118.68V155.16H892.573ZM926.621 113.432C930.034 113.432 933.021 112.664 935.581 111.128C938.226 109.592 940.274 107.416 941.725 104.6C943.176 101.784 943.901 98.5413 943.901 94.872C943.901 91.2027 943.176 87.96 941.725 85.144C940.274 82.2427 938.226 80.024 935.581 78.488C933.021 76.8667 930.034 76.056 926.621 76.056C923.293 76.056 920.306 76.8667 917.661 78.488C915.101 80.024 913.053 82.2 911.517 85.016C910.066 87.832 909.341 91.0747 909.341 94.744C909.341 98.4133 910.066 101.699 911.517 104.6C913.053 107.416 915.101 109.592 917.661 111.128C920.306 112.664 923.293 113.432 926.621 113.432ZM998.208 128.536C992.832 128.536 988.395 127.683 984.896 125.976C981.397 124.184 978.795 121.837 977.088 118.936C975.467 115.949 974.656 112.664 974.656 109.08C974.656 105.155 975.637 101.699 977.6 98.712C979.648 95.7253 982.677 93.3787 986.688 91.672C990.784 89.9653 995.904 89.112 1002.05 89.112H1018.05C1018.05 85.9547 1017.62 83.352 1016.77 81.304C1015.91 79.1707 1014.59 77.592 1012.8 76.568C1011.01 75.544 1008.62 75.032 1005.63 75.032C1002.39 75.032 999.616 75.7573 997.312 77.208C995.093 78.5733 993.728 80.7067 993.216 83.608H976.448C976.875 79 978.368 75.032 980.928 71.704C983.573 68.2907 987.029 65.6453 991.296 63.768C995.648 61.8907 1000.47 60.952 1005.76 60.952C1011.82 60.952 1017.07 61.976 1021.5 64.024C1025.94 66.072 1029.35 69.016 1031.74 72.856C1034.13 76.696 1035.33 81.432 1035.33 87.064V127H1020.74L1018.82 117.144C1017.88 118.851 1016.77 120.387 1015.49 121.752C1014.21 123.117 1012.71 124.312 1011.01 125.336C1009.3 126.36 1007.38 127.128 1005.25 127.64C1003.11 128.237 1000.77 128.536 998.208 128.536ZM1002.3 115.224C1004.52 115.224 1006.49 114.84 1008.19 114.072C1009.98 113.219 1011.52 112.109 1012.8 110.744C1014.08 109.293 1015.06 107.672 1015.74 105.88C1016.51 104.003 1017.02 101.997 1017.28 99.864V99.736H1004.1C1001.45 99.736 999.275 100.077 997.568 100.76C995.947 101.357 994.752 102.253 993.984 103.448C993.216 104.643 992.832 106.008 992.832 107.544C992.832 109.251 993.216 110.659 993.984 111.768C994.752 112.877 995.861 113.731 997.312 114.328C998.763 114.925 1000.43 115.224 1002.3 115.224Z" fill="#11142A"/>
</svg>
